<?xml version="1.0" encoding="utf-8"?>
<!-- Generator: Adobe Illustrator 16.0.0, SVG Export Plug-In . SVG Version: 6.00 Build 0)  -->
<!DOCTYPE svg PUBLIC "-//W3C//DTD SVG 1.1//EN" "http://www.w3.org/Graphics/SVG/1.1/DTD/svg11.dtd">
<svg version="1.1" id="Capa_1" xmlns="http://www.w3.org/2000/svg" xmlns:xlink="http://www.w3.org/1999/xlink" x="0px" y="0px"
	 width="14px" height="14px" viewBox="0 0 14 14" enable-background="new 0 0 14 14" xml:space="preserve">
<title>add</title>
<desc>Created with Sketch.</desc>
<g id="Icons">
	<g id="Rounded" transform="translate(-411.000000, -1487.000000)">
		<g id="Content" transform="translate(100.000000, 1428.000000)">
			<g id="_x2D_Round-_x2F_-Content-_x2F_-add" transform="translate(306.000000, 54.000000)">
				<g transform="translate(0.000000, 0.000000)">
					<polygon id="Path" fill="none" points="1.333,1.333 23,1.333 23,23 1.333,23 					"/>
					<path id="_xD83D__xDD39_Icon-Color" fill="#FFFFFF" d="M17.583,13.069h-4.514v4.514c0,0.497-0.406,0.902-0.902,0.902
						c-0.497,0-0.903-0.405-0.903-0.902v-4.514H6.75c-0.496,0-0.903-0.406-0.903-0.902c0-0.497,0.407-0.903,0.903-0.903h4.514V6.75
						c0-0.496,0.407-0.903,0.903-0.903c0.496,0,0.902,0.407,0.902,0.903v4.514h4.514c0.497,0,0.903,0.407,0.903,0.903
						C18.486,12.663,18.08,13.069,17.583,13.069z"/>
				</g>
			</g>
		</g>
	</g>
</g>
</svg>
