<?xml version="1.0" encoding="utf-8"?>
<!-- Generator: Adobe Illustrator 16.0.0, SVG Export Plug-In . SVG Version: 6.00 Build 0)  -->
<!DOCTYPE svg PUBLIC "-//W3C//DTD SVG 1.1//EN" "http://www.w3.org/Graphics/SVG/1.1/DTD/svg11.dtd">
<svg version="1.1" id="Capa_1" xmlns="http://www.w3.org/2000/svg" xmlns:xlink="http://www.w3.org/1999/xlink" x="0px" y="0px"
	 width="14px" height="14px" viewBox="0 0 14 14" enable-background="new 0 0 14 14" xml:space="preserve">
<title>add</title>
<desc>Created with Sketch.</desc>
<g id="Icons">
	<g id="Rounded" transform="translate(-411.000000, -1487.000000)">
		<g id="Content" transform="translate(100.000000, 1428.000000)">
			<g id="_x2D_Round-_x2F_-Content-_x2F_-add" transform="translate(306.000000, 54.000000)">
				<g transform="translate(0.000000, 0.000000)">
					<polygon id="Path" fill="none" points="1.333,1.333 23,1.333 23,23 1.333,23 					"/>
					<path id="_xD83D__xDD39_Icon-Color" fill="#FFFFFF" d="M16.635,8.974l-3.192,3.192l3.192,3.192
						c0.352,0.352,0.351,0.925,0,1.275c-0.352,0.352-0.924,0.353-1.275,0.001l-3.192-3.192l-3.192,3.191
						c-0.351,0.352-0.925,0.353-1.275,0.001c-0.352-0.351-0.351-0.926,0-1.276l3.192-3.192L7.699,8.975
						c-0.351-0.351-0.351-0.926,0-1.277c0.351-0.351,0.925-0.35,1.275,0.001l3.192,3.192l3.192-3.192
						c0.352-0.352,0.926-0.351,1.276,0C16.987,8.049,16.986,8.623,16.635,8.974z"/>
				</g>
			</g>
		</g>
	</g>
</g>
</svg>
