<?xml version="1.0" encoding="utf-8"?>
<!-- Generator: Adobe Illustrator 16.0.0, SVG Export Plug-In . SVG Version: 6.00 Build 0)  -->
<!DOCTYPE svg PUBLIC "-//W3C//DTD SVG 1.1//EN" "http://www.w3.org/Graphics/SVG/1.1/DTD/svg11.dtd">
<svg version="1.1" id="Capa_1" xmlns="http://www.w3.org/2000/svg" xmlns:xlink="http://www.w3.org/1999/xlink" x="0px" y="0px"
	 width="60px" height="60px" viewBox="0 0 60 60" enable-background="new 0 0 60 60" xml:space="preserve">
<path fill="#FFFFFF" d="M58.946,23.585l-7.507-6.119V7.681c0-1.102-0.897-1.999-1.999-1.999h-4.724
	c-1.102,0-1.999,0.896-1.999,1.999v2.678L32.687,2.183c-0.726-0.591-1.683-0.917-2.693-0.917c-1.007,0-1.959,0.324-2.68,0.912
	L1.054,23.584c-1.193,0.972-1.122,1.819-0.973,2.237c0.148,0.417,0.626,1.118,2.159,1.118h3.596v28.151
	c0,2.009,1.63,3.644,3.634,3.644h11.355c1.987,0,3.543-1.601,3.543-3.644V43.547c0-0.99,0.91-1.891,1.908-1.891h7.631
	c0.951,0,1.727,0.848,1.727,1.891v11.544c0,1.976,1.705,3.644,3.725,3.644H50.53c2.004,0,3.634-1.635,3.634-3.644V26.939h3.596
	c1.533,0,2.011-0.7,2.159-1.118C60.068,25.403,60.139,24.557,58.946,23.585z"/>
</svg>
