<?xml version="1.0" encoding="utf-8"?>
<!-- Generator: Adobe Illustrator 16.0.0, SVG Export Plug-In . SVG Version: 6.00 Build 0)  -->
<!DOCTYPE svg PUBLIC "-//W3C//DTD SVG 1.1//EN" "http://www.w3.org/Graphics/SVG/1.1/DTD/svg11.dtd">
<svg version="1.1" id="Capa_1" xmlns="http://www.w3.org/2000/svg" xmlns:xlink="http://www.w3.org/1999/xlink" x="0px" y="0px"
	 width="60px" height="60px" viewBox="0 0 60 60" enable-background="new 0 0 60 60" xml:space="preserve">
<g id="Layer_82">
	<path id="id_101" fill="#FFFFFF" d="M4.882,25.625c0.393,0.951,1.467,1.421,2.432,1.063l12.016-4.596
		c0.964-0.415,1.409-1.531,0.995-2.496c-0.391-0.908-1.412-1.365-2.349-1.05l-8.117,3.103c8.864-18.729,36.531-16.373,41.99,3.799
		c0.272,1.014,1.314,1.614,2.329,1.342c1.014-0.273,1.616-1.315,1.343-2.33l0,0C49.188,1.136,17.279-1.853,6.629,19.636
		l-2.823-7.383c-0.456-0.945-1.591-1.341-2.537-0.886c-0.822,0.396-1.247,1.322-1.01,2.204C0.26,13.57,4.832,25.587,4.882,25.625z"
		/>
	<path id="id_102" fill="#FFFFFF" d="M59.801,45.783L55.47,34.464c-0.125-0.3-0.319-0.565-0.57-0.774
		c-0.525-0.435-1.245-0.555-1.887-0.314l-11.319,4.331c-0.965,0.414-1.409,1.53-0.995,2.494c0.391,0.909,1.411,1.365,2.35,1.051
		l7.42-2.837c-8.864,18.729-36.531,16.373-42.002-3.799c-0.271-1.009-1.307-1.607-2.316-1.342c-1.012,0.277-1.614,1.314-1.356,2.329
		c6.332,23.324,38.254,26.313,48.891,4.812l2.532,6.699c0.366,0.989,1.467,1.494,2.456,1.127
		C59.663,47.872,60.167,46.771,59.801,45.783z"/>
</g>
</svg>
