<?xml version="1.0" encoding="utf-8"?>
<!-- Generator: Adobe Illustrator 16.0.0, SVG Export Plug-In . SVG Version: 6.00 Build 0)  -->
<!DOCTYPE svg PUBLIC "-//W3C//DTD SVG 1.1//EN" "http://www.w3.org/Graphics/SVG/1.1/DTD/svg11.dtd">
<svg version="1.1" id="Capa_1" xmlns="http://www.w3.org/2000/svg" xmlns:xlink="http://www.w3.org/1999/xlink" x="0px" y="0px"
	 width="60px" height="60px" viewBox="0 0 60 60" enable-background="new 0 0 60 60" xml:space="preserve">
<title>Asset 25</title>
<g id="Layer_2">
	<g id="Layer_1-2">
		<path id="id_101" fill="#FFFFFF" d="M54.519,9.933H43.375V7.709c0.006-1.228-0.988-2.228-2.215-2.231c-0.006,0-0.012,0-0.017,0
			H18.856c-1.228-0.005-2.227,0.987-2.231,2.215c0,0.006,0,0.011,0,0.017v2.224H5.481c-1.232,0-2.231,1-2.231,2.233
			c0,1.232,1,2.231,2.231,2.231h4.456v33.438c0,3.692,2.995,6.688,6.688,6.688h26.75c3.693,0,6.688-2.995,6.688-6.688V14.397h4.456
			c1.231,0,2.231-0.999,2.231-2.231C56.75,10.933,55.751,9.934,54.519,9.933C54.519,9.933,54.519,9.933,54.519,9.933z
			 M45.606,47.835c-0.005,1.23-1.002,2.224-2.231,2.224h-26.75c-1.229,0-2.228-0.993-2.231-2.224V14.397h31.213V47.835z"/>
		<path id="id_102" fill="#FFFFFF" d="M23.313,43.371c1.229,0,2.228-0.993,2.231-2.224V23.308c0-1.232-0.999-2.232-2.232-2.231
			c-1.232,0-2.231,1-2.231,2.231v17.839C21.085,42.378,22.083,43.371,23.313,43.371z"/>
		<path id="id_103" fill="#FFFFFF" d="M36.688,43.371c1.23,0,2.227-0.993,2.231-2.224V23.308c0-1.232-0.999-2.232-2.231-2.231
			c-1.232,0-2.231,1-2.231,2.231v17.839C34.461,42.378,35.458,43.371,36.688,43.371z"/>
	</g>
</g>
</svg>
